<svg preserveAspectRatio="none" width="100%" height="100%" overflow="visible" style="display: block;" viewBox="0 0 24 24" fill="none" xmlns="http://www.w3.org/2000/svg">
<g id="M-Icon/System-Icon/cross">
<path id="vector" d="M16.4697 6.46972C16.7626 6.17683 17.2374 6.17683 17.5303 6.46972C17.8232 6.76261 17.8232 7.23737 17.5303 7.53027L13.0605 12L17.5303 16.4697C17.8232 16.7626 17.8232 17.2374 17.5303 17.5303C17.2374 17.8232 16.7626 17.8232 16.4697 17.5303L12 13.0605L7.53027 17.5303C7.23737 17.8232 6.76261 17.8232 6.46972 17.5303C6.17683 17.2374 6.17683 16.7626 6.46972 16.4697L10.9394 12L6.46972 7.53027C6.17683 7.23737 6.17683 6.76261 6.46972 6.46972C6.76261 6.17683 7.23737 6.17683 7.53027 6.46972L12 10.9394L16.4697 6.46972Z" fill="var(--fill-0, #1D2539)"/>
</g>
</svg>
