<svg preserveAspectRatio="none" width="100%" height="100%" overflow="visible" style="display: block;" viewBox="0 0 20 20" fill="none" xmlns="http://www.w3.org/2000/svg">
<g id="Icon Left">
<g id="vector">
<path d="M6.66667 15.8333C7.47208 15.8333 8.125 16.4862 8.125 17.2916C8.125 18.0971 7.47208 18.75 6.66667 18.75C5.86125 18.75 5.20833 18.0971 5.20833 17.2916C5.20833 16.4862 5.86125 15.8333 6.66667 15.8333Z" fill="var(--fill-0, white)"/>
<path d="M14.1667 15.8333C14.9721 15.8333 15.625 16.4862 15.625 17.2916C15.625 18.0971 14.9721 18.75 14.1667 18.75C13.3613 18.75 12.7083 18.0971 12.7083 17.2916C12.7083 16.4862 13.3613 15.8333 14.1667 15.8333Z" fill="var(--fill-0, white)"/>
<path d="M2.70732 1.87396C3.85619 1.87397 4.82714 2.72482 4.97894 3.8632L5.11881 4.91341C5.119 4.9147 5.11935 4.91597 5.11953 4.91727L5.7195 9.41424L5.72581 9.45768C5.86859 10.3671 6.65309 11.0416 7.57812 11.0416H14.4209C15.3608 11.0416 16.1553 10.3463 16.2795 9.41424L16.8795 4.91727C16.9252 4.57516 17.2396 4.33482 17.5817 4.38047C17.9238 4.42615 18.1641 4.74056 18.1185 5.08268L17.5185 9.57954C17.3114 11.1328 15.9871 12.2916 14.4209 12.2916H7.57812C7.02565 12.2916 6.5034 12.1472 6.0496 11.8923L6.26017 13.4705L6.2677 13.5187C6.35686 14.0121 6.78706 14.375 7.29268 14.375H15.8333C16.1785 14.375 16.4583 14.6548 16.4583 15C16.4583 15.3452 16.1785 15.625 15.8333 15.625H7.29268C6.1438 15.625 5.17284 14.7741 5.02106 13.6357L3.73983 4.0285C3.67076 3.51068 3.22923 3.12397 2.70732 3.12396H1.66667C1.32149 3.12396 1.04167 2.84414 1.04167 2.49896C1.04167 2.15378 1.32149 1.87396 1.66667 1.87396H2.70732Z" fill="var(--fill-0, white)"/>
<path d="M10.9989 2.70831C11.3441 2.70831 11.6239 2.98813 11.6239 3.33331V5.20831H13.4989C13.8441 5.20831 14.1239 5.48813 14.1239 5.83331C14.1239 6.17849 13.8441 6.45831 13.4989 6.45831H11.6239V8.33331C11.6239 8.67849 11.3441 8.95831 10.9989 8.95831C10.6538 8.9583 10.3739 8.67848 10.3739 8.33331V6.45831H8.49894C8.15377 6.4583 7.87394 6.17848 7.87394 5.83331C7.87394 5.48814 8.15377 5.20832 8.49894 5.20831H10.3739V3.33331C10.3739 2.98814 10.6538 2.70832 10.9989 2.70831Z" fill="var(--fill-0, white)"/>
</g>
</g>
</svg>
