<svg preserveAspectRatio="none" width="100%" height="100%" overflow="visible" style="display: block;" viewBox="0 0 16 16" fill="none" xmlns="http://www.w3.org/2000/svg">
<g id="Check Icon">
<path id="vector" fill-rule="evenodd" clip-rule="evenodd" d="M8.783 2.24118C9.82476 1.64411 11.1491 2.19318 11.4641 3.35121L11.6824 4.15467L11.6827 4.1554C11.6978 4.2113 11.7416 4.25626 11.8002 4.27243L12.6036 4.49077C13.7442 4.80008 14.2933 6.08945 13.7409 7.12293L13.7137 7.17192L13.2996 7.89442C13.2707 7.94485 13.2701 8.00806 13.2996 8.06043L13.7137 8.78293C14.3108 9.82467 13.7617 11.1491 12.6037 11.4641H12.6036L11.8003 11.6824L11.7994 11.6827C11.7434 11.6978 11.6984 11.7418 11.6823 11.8007L11.4642 12.6032L11.4642 12.6032C11.1501 13.7621 9.82439 14.3106 8.783 13.7138L8.06042 13.2996C8.00976 13.2706 7.94618 13.2701 7.89368 13.3L7.17192 13.7138C6.13017 14.3108 4.80588 13.7617 4.49084 12.6037L4.49076 12.6036L4.27242 11.8003L4.27226 11.7994C4.25711 11.7434 4.21306 11.6984 4.15426 11.6823L3.35168 11.4642C2.19279 11.1501 1.64429 9.82433 2.24117 8.78293L2.65531 8.06043C2.6842 8.01001 2.68484 7.94678 2.65531 7.89442L2.24117 7.17192C1.64408 6.13016 2.19317 4.80586 3.3512 4.49085L3.35128 4.49077L4.15466 4.27243L4.1554 4.27227C4.21131 4.25716 4.25626 4.21328 4.27242 4.15467L4.49076 3.35129C4.80012 2.21074 6.08947 1.66159 7.12292 2.214L7.17192 2.24118L7.89441 2.65532C7.94483 2.6842 8.00807 2.68484 8.06042 2.65532L8.783 2.24118ZM10.3343 6.29391C10.139 6.09865 9.8225 6.09866 9.62724 6.29391L7.31409 8.60706L6.6676 7.96058C6.47234 7.76532 6.15583 7.76532 5.96057 7.96058C5.76531 8.15584 5.76531 8.47235 5.96057 8.66761L6.96057 9.66761C7.15583 9.86287 7.47234 9.86287 7.6676 9.66761L10.3343 7.00095C10.5295 6.80568 10.5295 6.48917 10.3343 6.29391Z" fill="var(--fill-0, #26B57C)"/>
</g>
</svg>
