<svg preserveAspectRatio="none" width="100%" height="100%" overflow="visible" style="display: block;" viewBox="0 0 32 32" fill="none" xmlns="http://www.w3.org/2000/svg">
<g id="Like Icon" clip-path="url(#clip0_0_203)">
<g id="vector" filter="url(#filter0_d_0_203)">
<path d="M19.6584 3C21.1918 3.00004 22.4107 4.27588 22.3526 5.80306C22.2673 8.04934 21.7772 10.262 20.9077 12.335H25.3334C27.359 12.335 29 13.976 29 16.0016C29 16.0494 28.9966 16.0972 28.9898 16.1445C28.5706 19.0493 27.5417 21.8182 25.857 24.43L25.8571 24.4302C25.0977 25.6081 23.875 26.3792 22.5261 26.6175L22.3952 26.6388C19.1265 27.1297 15.8049 27.0986 12.4473 26.6356C10.8161 26.4115 9.56286 25.1199 9.32881 23.5179C8.81588 20.0048 8.90352 16.5287 9.69225 13.1086C9.74487 12.8805 9.87586 12.6781 10.0624 12.5366C13.0009 10.3078 15.4679 7.52373 17.3249 4.34554L17.3256 4.3444C17.8073 3.52236 18.6881 3 19.6584 3ZM19.6584 5C19.4153 5 19.1828 5.13102 19.0511 5.35563C17.1236 8.65412 14.5829 11.5561 11.564 13.9049C10.9079 16.9507 10.845 20.0591 11.3078 23.2288L11.3194 23.2983C11.4534 24.0124 12.0199 24.5582 12.7194 24.6543H12.7199C15.9121 25.0945 19.0404 25.1203 22.0982 24.6611C22.961 24.5315 23.7201 24.0539 24.1761 23.3465L24.1763 23.3462C25.6926 20.9955 26.6137 18.5244 26.9982 15.938C26.9648 15.0465 26.2331 14.335 25.3334 14.335H19.3334C18.7811 14.335 18.3334 13.8872 18.3334 13.335V13.3333C18.3334 13.1714 18.3727 13.012 18.4479 12.8687C19.6103 10.654 20.2597 8.21308 20.354 5.72705C20.3692 5.32764 20.0516 5.00004 19.6584 5Z" fill="var(--fill-0, white)"/>
<path d="M7.99987 12.3333C8.30318 12.3333 8.59019 12.4711 8.77998 12.7077C8.96975 12.9443 9.04191 13.2542 8.97611 13.5503C8.12954 17.359 8.12954 21.3076 8.97611 25.1164C9.04191 25.4125 8.96975 25.7224 8.77998 25.959C8.59019 26.1956 8.30318 26.3333 7.99987 26.3333H5.3332C4.86458 26.3333 4.45881 26.0078 4.35713 25.5503C3.44704 21.4557 3.44704 17.2109 4.35713 13.1164C4.45881 12.6589 4.86458 12.3334 5.3332 12.3333H7.99987ZM6.33662 23C5.78436 23 5.33662 23.4477 5.33662 24C5.33662 24.5523 5.78436 25 6.33662 25C6.88891 25 7.33662 24.5523 7.33662 24C7.33662 23.4477 6.88891 23 6.33662 23Z" fill="var(--fill-0, white)"/>
</g>
</g>
<defs>
<filter id="filter0_d_0_203" x="-4.32544" y="-3" width="41.3255" height="39.995" filterUnits="userSpaceOnUse" color-interpolation-filters="sRGB">
<feFlood flood-opacity="0" result="BackgroundImageFix"/>
<feColorMatrix in="SourceAlpha" type="matrix" values="0 0 0 0 0 0 0 0 0 0 0 0 0 0 0 0 0 0 127 0" result="hardAlpha"/>
<feOffset dy="2"/>
<feGaussianBlur stdDeviation="4"/>
<feComposite in2="hardAlpha" operator="out"/>
<feColorMatrix type="matrix" values="0 0 0 0 0 0 0 0 0 0 0 0 0 0 0 0 0 0 0.24 0"/>
<feBlend mode="normal" in2="BackgroundImageFix" result="effect1_dropShadow_0_203"/>
<feBlend mode="normal" in="SourceGraphic" in2="effect1_dropShadow_0_203" result="shape"/>
</filter>
<clipPath id="clip0_0_203">
<rect width="32" height="32" fill="white"/>
</clipPath>
</defs>
</svg>
