<svg preserveAspectRatio="none" width="100%" height="100%" overflow="visible" style="display: block;" viewBox="0 0 32 32" fill="none" xmlns="http://www.w3.org/2000/svg">
<g id="Options Icon" clip-path="url(#clip0_0_197)">
<g id="Vector (Stroke)" filter="url(#filter0_d_0_197)">
<path d="M18.3434 6.01305C19.4302 6.01305 20.3344 6.01112 21.0494 6.10722C21.7899 6.20678 22.4586 6.42613 22.9959 6.96341C23.5229 7.49046 23.743 8.14383 23.8451 8.86759L24.0102 8.91251C25.0601 9.19385 25.9345 9.426 26.6003 9.7039C27.2898 9.99171 27.8792 10.3765 28.2591 11.0344C28.639 11.6924 28.6778 12.3954 28.5823 13.1364C28.49 13.852 28.2537 14.7249 27.9723 15.775L26.1087 22.7325C25.7972 23.895 24.7654 24.6714 23.6222 24.7127C23.4862 25.0763 23.2904 25.4118 22.9959 25.7063C22.4586 26.2434 21.7898 26.462 21.0494 26.5616C20.3344 26.6577 19.4303 26.6558 18.3434 26.6558H13.6244C12.5374 26.6558 11.6327 26.6577 10.9176 26.5616C10.1774 26.462 9.5091 26.2432 8.97199 25.7063C8.67716 25.4114 8.4799 25.0759 8.34389 24.7118C7.20898 24.662 6.18779 23.8881 5.87813 22.7325L4.01456 15.775C3.7332 14.7249 3.49681 13.852 3.4046 13.1364C3.30911 12.3954 3.34782 11.6924 3.72772 11.0344C4.10764 10.3766 4.6971 9.99256 5.38654 9.70477C6.05231 9.42686 6.92592 9.19384 7.97584 8.91251L8.12098 8.87277C8.22285 8.14689 8.44364 7.49176 8.97199 6.96341C9.50916 6.42627 10.1773 6.2068 10.9176 6.10722C11.6327 6.01108 12.5374 6.01305 13.6244 6.01305H18.3434ZM13.6244 7.78245C12.4874 7.78245 11.7233 7.78446 11.1535 7.86107C10.6095 7.93425 10.3767 8.06076 10.223 8.21443C10.0693 8.36811 9.94284 8.6009 9.86965 9.14492C9.83808 9.37975 9.82132 9.64806 9.81004 9.96136V22.7066C9.82132 23.0204 9.83804 23.2888 9.86965 23.5239C9.94282 24.068 10.0693 24.3007 10.223 24.4544C10.3767 24.6081 10.6094 24.7345 11.1535 24.8077C11.7233 24.8843 12.4874 24.8864 13.6244 24.8864H18.3434C19.4802 24.8864 20.2438 24.8843 20.8135 24.8077C21.3578 24.7346 21.5911 24.6081 21.7448 24.4544C21.8985 24.3007 22.0251 24.0679 22.0982 23.5239C22.1557 23.0965 22.171 22.5597 22.1751 21.8383L22.1768 21.0529V11.6159L22.1751 10.8305C22.171 10.1092 22.1557 9.57227 22.0982 9.14492C22.025 8.60095 21.8985 8.36811 21.7448 8.21443C21.5911 8.06071 21.3578 7.93425 20.8135 7.86107C20.2438 7.78451 19.4801 7.78245 18.3434 7.78245H13.6244ZM8.02336 10.7329C7.14772 10.9691 6.52963 11.1442 6.0682 11.3368C5.56176 11.5482 5.36914 11.731 5.2604 11.9191C5.15172 12.1073 5.08917 12.3655 5.15931 12.9101C5.23279 13.4803 5.42918 14.2187 5.72348 15.3171L7.58792 22.2746C7.65592 22.5281 7.82545 22.7261 8.04064 22.8396V22.723C8.02369 22.2257 8.02163 21.6687 8.02163 21.0529V11.6159C8.02163 11.3067 8.02136 11.0123 8.02336 10.7329ZM23.9462 22.8396C24.1614 22.7262 24.3309 22.528 24.3989 22.2746L26.2634 15.3171C26.5577 14.2187 26.7532 13.4803 26.8267 12.9101C26.8969 12.3654 26.8352 12.1074 26.7265 11.9191C26.6177 11.731 26.4252 11.5482 25.9187 11.3368C25.4542 11.1429 24.8311 10.9663 23.9462 10.7277V22.8396Z" fill="var(--fill-0, white)"/>
</g>
</g>
<defs>
<filter id="filter0_d_0_197" x="-4.63957" y="0.0130424" width="41.266" height="36.6427" filterUnits="userSpaceOnUse" color-interpolation-filters="sRGB">
<feFlood flood-opacity="0" result="BackgroundImageFix"/>
<feColorMatrix in="SourceAlpha" type="matrix" values="0 0 0 0 0 0 0 0 0 0 0 0 0 0 0 0 0 0 127 0" result="hardAlpha"/>
<feOffset dy="2"/>
<feGaussianBlur stdDeviation="4"/>
<feComposite in2="hardAlpha" operator="out"/>
<feColorMatrix type="matrix" values="0 0 0 0 0 0 0 0 0 0 0 0 0 0 0 0 0 0 0.24 0"/>
<feBlend mode="normal" in2="BackgroundImageFix" result="effect1_dropShadow_0_197"/>
<feBlend mode="normal" in="SourceGraphic" in2="effect1_dropShadow_0_197" result="shape"/>
</filter>
<clipPath id="clip0_0_197">
<rect width="32" height="32" fill="white"/>
</clipPath>
</defs>
</svg>
