<svg preserveAspectRatio="none" width="100%" height="100%" overflow="visible" style="display: block;" viewBox="0 0 12 12" fill="none" xmlns="http://www.w3.org/2000/svg">
<g id="Star1">
<path id="Star" d="M9.11526 7.2032C8.9809 7.33341 8.91916 7.52172 8.94977 7.7064L9.41095 10.2587C9.44986 10.475 9.35856 10.694 9.17751 10.819C9.00009 10.9487 8.76405 10.9642 8.57056 10.8605L6.27296 9.66213C6.19307 9.6196 6.10436 9.59677 6.01358 9.59418H5.90076C5.88227 9.59418 5.86375 9.59526 5.84567 9.59914C5.80646 9.60757 5.76833 9.62148 5.73293 9.64086L3.43481 10.8449C3.3212 10.902 3.19255 10.9222 3.06649 10.902C2.75938 10.8439 2.55447 10.5513 2.60479 10.2426L3.06649 7.69032C3.09709 7.50408 3.03536 7.31473 2.901 7.18245L1.02775 5.36678C0.871085 5.21478 0.816615 4.98653 0.888204 4.78058C0.957718 4.57515 1.13514 4.42523 1.34938 4.39151L3.92763 4.01748C4.12372 3.99725 4.29595 3.87793 4.38414 3.70155L5.52023 1.37231C5.54721 1.32043 5.58197 1.27271 5.62399 1.23225L5.64474 1.21611C5.66199 1.20268 5.67769 1.18739 5.69385 1.17266C5.70417 1.16325 5.71501 1.15453 5.72634 1.14646C5.74431 1.13366 5.76461 1.12467 5.78532 1.11707L5.81074 1.10774L5.83033 1.09967C5.87563 1.08102 5.92413 1.07143 5.97311 1.07143H6.11733C6.31238 1.09166 6.48409 1.20838 6.57384 1.38269L7.72497 3.70155C7.80798 3.87119 7.96931 3.98895 8.15555 4.01748L10.7338 4.39151C10.9517 4.42263 11.1338 4.57307 11.2059 4.78058C11.2738 4.9886 11.2152 5.21686 11.0554 5.36678L9.11526 7.2032Z" fill="var(--fill-0, white)"/>
</g>
</svg>
