<svg preserveAspectRatio="none" width="100%" height="100%" overflow="visible" style="display: block;" viewBox="0 0 24 24" fill="none" xmlns="http://www.w3.org/2000/svg">
<g id="Share Icon">
<g id="vector">
<path d="M19.6575 11.25C20.0717 11.25 20.4075 11.5858 20.4075 12C20.4075 13.5284 20.3064 15.057 20.1032 16.5752L20.0612 16.8787C19.8253 18.5283 18.5287 19.8256 16.8793 20.0601L16.8792 20.06C13.7439 20.508 10.5631 20.522 7.42605 20.102L7.12259 20.06C5.47297 19.8241 4.17572 18.5275 3.94119 16.8781L3.94131 16.878C3.71007 15.2603 3.595 13.63 3.595 12C3.595 11.5858 3.93079 11.25 4.345 11.25C4.75921 11.25 5.095 11.5858 5.095 12C5.095 13.4623 5.19168 14.9243 5.38602 16.3761L5.42618 16.6664L5.4263 16.6669C5.5668 17.655 6.34453 18.4335 7.33487 18.5751C10.4294 19.0175 13.5718 19.0175 16.6676 18.5751L16.6681 18.575C17.6562 18.4345 18.4347 17.6567 18.5763 16.6664C18.7975 15.1193 18.9075 13.5598 18.9075 12C18.9075 11.5858 19.2433 11.25 19.6575 11.25Z" fill="var(--fill-0, #666D85)"/>
<path d="M10.7622 4.17715C11.4451 3.4943 12.5537 3.49428 13.2366 4.17715L16.5291 7.46963C16.822 7.76251 16.8219 8.23741 16.5291 8.5303C16.2362 8.82317 15.7613 8.82319 15.4684 8.5303L12.75 5.81192V14C12.75 14.4142 12.4142 14.75 12 14.75C11.5858 14.75 11.25 14.4142 11.25 14V5.81058L8.5303 8.5303C8.23742 8.82314 7.76264 8.82314 7.46976 8.5303C7.17687 8.23741 7.17687 7.76252 7.46976 7.46963L10.7622 4.17715Z" fill="var(--fill-0, #666D85)"/>
</g>
</g>
</svg>
