<svg preserveAspectRatio="none" width="100%" height="100%" overflow="visible" style="display: block;" viewBox="0 0 22 22" fill="none" xmlns="http://www.w3.org/2000/svg">
<g id="High rated">
<path id="Union" d="M10.9977 2.98029C11.573 2.98029 12.0898 3.29998 12.3464 3.8156L14.0686 7.28063L17.7833 7.96354C18.3219 8.06208 18.7642 8.44596 18.9383 8.96503C19.1125 9.48408 18.9911 10.057 18.6221 10.4614L15.9466 13.3855L16.5275 17.3032C16.6043 17.8715 16.3648 18.4215 15.9019 18.7458C15.439 19.0701 14.8409 19.1102 14.3401 18.849L11.0447 17.1291L7.74935 18.849C7.52937 18.9635 7.28987 19.0208 7.05156 19.0208L7.05268 19.0197C6.74904 19.0197 6.44769 18.9268 6.18759 18.7458C5.72469 18.4215 5.48513 17.8716 5.56074 17.3113L6.0569 13.3914L3.37448 10.4614C3.0044 10.0581 2.883 9.48407 3.05714 8.96503C3.23131 8.44596 3.67361 8.06208 4.21215 7.96354L7.92693 7.28063L9.64915 3.8156C9.90582 3.29999 10.4225 2.98029 10.9977 2.98029Z" fill="var(--fill-0, #0F8857)"/>
</g>
</svg>
