<svg preserveAspectRatio="none" width="100%" height="100%" overflow="visible" style="display: block;" viewBox="0 0 24 24" fill="none" xmlns="http://www.w3.org/2000/svg">
<g id="M-Icon/System-Icon/search">
<path id="Star 16" d="M14.7483 3.25264C14.8783 2.96469 15.2873 2.96469 15.4173 3.25264L16.2072 5.00153C16.244 5.08297 16.3092 5.14819 16.3906 5.18496L18.1395 5.97484C18.4275 6.1049 18.4275 6.51381 18.1395 6.64387L16.3906 7.43375C16.3092 7.47052 16.244 7.53574 16.2072 7.61718L15.4173 9.36607C15.2873 9.65402 14.8783 9.65402 14.7483 9.36607L13.9584 7.61718C13.9216 7.53574 13.8564 7.47052 13.775 7.43375L12.0261 6.64387C11.7381 6.51381 11.7381 6.1049 12.0261 5.97484L13.775 5.18496C13.8564 5.14819 13.9216 5.08297 13.9584 5.00153L14.7483 3.25264Z" fill="var(--fill-0, white)"/>
<path id="Subtract" d="M16.4697 16.4697C16.7626 16.1768 17.2374 16.1768 17.5303 16.4697L20.5303 19.4697C20.8232 19.7626 20.8232 20.2374 20.5303 20.5303C20.2374 20.8232 19.7626 20.8232 19.4697 20.5303L16.4697 17.5303C16.1768 17.2374 16.1768 16.7626 16.4697 16.4697ZM10.5 3.25C11.4965 3.25 12.4463 3.45068 13.3105 3.81445L13.0869 4.31055L11.7891 4.89648C11.3746 4.80152 10.9433 4.75 10.5 4.75C7.32436 4.75 4.75 7.32436 4.75 10.5C4.75 13.6756 7.32436 16.25 10.5 16.25C13.6756 16.25 16.25 13.6756 16.25 10.5C16.25 10.3852 16.2449 10.2713 16.2383 10.1582C16.2596 10.1207 16.2815 10.0826 16.2998 10.042L17.082 8.30664L17.3672 8.17676C17.6139 8.90631 17.75 9.68714 17.75 10.5C17.75 14.5041 14.5041 17.75 10.5 17.75C6.49594 17.75 3.25 14.5041 3.25 10.5C3.25 6.49594 6.49594 3.25 10.5 3.25Z" fill="var(--fill-0, white)"/>
</g>
</svg>
