<svg viewBox="0 0 68 94" fill="none" xmlns="http://www.w3.org/2000/svg">
  <path d="M57 9v20" stroke="#0F61FF" stroke-width="4.5" stroke-linecap="round"/>
  <path d="M50.5 14.5L57 7l6.5 7.5" stroke="#0F61FF" stroke-width="4.5" stroke-linecap="round" stroke-linejoin="round"/>
  <path d="M50.5 23.5L57 31l6.5-7.5" stroke="#0F61FF" stroke-width="4.5" stroke-linecap="round" stroke-linejoin="round"/>
  <path d="M22 10c-3.6 0-6.5 2.9-6.5 6.5V56l-4.8-5.2c-2.4-2.6-6.5-2.8-9.1-.4l-.1.1c-2.4 2.2-2.6 5.9-.7 8.5L15.7 79.4C18.4 83.5 22 88 29 88h12c8.8 0 16-7.2 16-16V51c0-3-2.4-5.4-5.4-5.4-1 0-1.9.3-2.7.7-.7-2.5-3-4.3-5.7-4.3-1.3 0-2.5.4-3.5 1.1-.9-2.2-3.1-3.7-5.6-3.7-1.1 0-2.2.3-3.1.8V16.5C28.5 12.9 25.6 10 22 10z" fill="#ffffff" stroke="#141414" stroke-width="3.5" stroke-linejoin="round"/>
</svg>
