<svg preserveAspectRatio="none" width="100%" height="100%" overflow="visible" style="display: block;" viewBox="0 0 20 20" fill="none" xmlns="http://www.w3.org/2000/svg">
<g id="Icon Left">
<g id="vector">
<path d="M6.66667 18.75C7.47208 18.75 8.125 18.0971 8.125 17.2917C8.125 16.4863 7.47208 15.8333 6.66667 15.8333C5.86125 15.8333 5.20833 16.4863 5.20833 17.2917C5.20833 18.0971 5.86125 18.75 6.66667 18.75Z" fill="var(--fill-0, white)"/>
<path d="M14.1667 18.75C14.857 18.75 15.4167 18.1904 15.4167 17.5C15.4167 16.8096 14.857 16.25 14.1667 16.25C13.4763 16.25 12.9167 16.8096 12.9167 17.5C12.9167 18.1904 13.4763 18.75 14.1667 18.75Z" fill="var(--fill-0, white)"/>
<path d="M8.125 7.08331C8.35511 7.08331 8.54165 7.26987 8.54167 7.49998V9.99998C8.54167 10.2301 8.35512 10.4166 8.125 10.4166C7.89488 10.4166 7.70833 10.2301 7.70833 9.99998V7.49998C7.70835 7.26987 7.89489 7.08331 8.125 7.08331Z" fill="var(--fill-0, white)"/>
<path d="M11.0417 7.08331C11.2718 7.08331 11.4583 7.26987 11.4583 7.49998V9.99998C11.4583 10.2301 11.2718 10.4166 11.0417 10.4166C10.8115 10.4166 10.625 10.2301 10.625 9.99998V7.49998C10.625 7.26987 10.8116 7.08331 11.0417 7.08331Z" fill="var(--fill-0, white)"/>
<path d="M13.9583 7.08331C14.1884 7.08331 14.375 7.26987 14.375 7.49998V9.99998C14.375 10.2301 14.1885 10.4166 13.9583 10.4166C13.7282 10.4166 13.5417 10.2301 13.5417 9.99998V7.49998C13.5417 7.26987 13.7282 7.08331 13.9583 7.08331Z" fill="var(--fill-0, white)"/>
<path fill-rule="evenodd" clip-rule="evenodd" d="M2.70732 2.08229C3.75171 2.0823 4.63434 2.8558 4.77234 3.89076L4.86471 4.58331H16.549C17.2934 4.58332 17.8698 5.22846 17.7923 5.96372L17.788 5.99882L17.2027 10.3853C17.0094 11.835 15.7734 12.9166 14.3115 12.9166H7.6886C7.01558 12.9166 6.39057 12.6871 5.89305 12.2982L5.95673 12.7751C6.09475 13.8108 6.97753 14.5833 8.02185 14.5833H15.8333C16.0634 14.5833 16.25 14.7699 16.25 15C16.25 15.2301 16.0635 15.4166 15.8333 15.4166H8.02185C6.55996 15.4166 5.32396 14.335 5.13072 12.8853L3.94633 4.00093C3.86349 3.37967 3.33373 2.91564 2.70732 2.91562H1.66667C1.43655 2.91562 1.25 2.72908 1.25 2.49896C1.25 2.26884 1.43655 2.08229 1.66667 2.08229H2.70732ZM5.62347 10.2751C5.76153 11.3099 6.64443 12.0833 7.6886 12.0833H14.3115C15.3558 12.0833 16.2386 11.3107 16.3766 10.275L16.962 5.88865L16.9645 5.86525C16.9832 5.62473 16.7932 5.41665 16.549 5.41664H4.97589L5.62347 10.2751Z" fill="var(--fill-0, white)"/>
</g>
</g>
</svg>
