<svg preserveAspectRatio="none" width="100%" height="100%" overflow="visible" style="display: block;" viewBox="0 0 24 24" fill="none" xmlns="http://www.w3.org/2000/svg">
<g id="Like Icon" clip-path="url(#clip0_0_90)">
<g id="vector" filter="url(#filter0_d_0_90)">
<path d="M14.7438 2.25C15.8939 2.25003 16.808 3.20691 16.7644 4.35229C16.7005 6.037 16.3329 7.6965 15.6808 9.25122H19C20.5192 9.25123 21.75 10.482 21.75 12.0012C21.75 12.0371 21.7475 12.0729 21.7423 12.1084C21.4279 14.2869 20.6563 16.3636 19.3927 18.3225L19.3928 18.3226C18.8233 19.2061 17.9063 19.7844 16.8946 19.9631L16.7964 19.9791C14.3449 20.3472 11.8537 20.3239 9.33547 19.9767C8.11206 19.8086 7.17214 18.8399 6.99661 17.6384C6.61191 15.0036 6.67764 12.3966 7.26919 9.83142C7.30865 9.66035 7.4069 9.50856 7.54678 9.40247C9.75069 7.73082 11.6009 5.6428 12.9937 3.25916L12.9942 3.2583C13.3555 2.64177 14.0161 2.25 14.7438 2.25ZM14.7438 3.75C14.5615 3.75 14.3871 3.84826 14.2884 4.01672C12.8427 6.49059 10.9372 8.66707 8.673 10.4287C8.18093 12.713 8.13375 15.0443 8.48086 17.4216L8.48953 17.4738C8.59006 18.0093 9.0149 18.4186 9.53957 18.4907H9.53994C11.9341 18.8209 14.2803 18.8402 16.5736 18.4958C17.2208 18.3986 17.7901 18.0404 18.1321 17.5099L18.1322 17.5096C19.2695 15.7466 19.9603 13.8933 20.2487 11.9535C20.2236 11.2849 19.6748 10.7512 19 10.7512H14.5C14.0858 10.7512 13.75 10.4154 13.75 10.0012V10C13.75 9.87858 13.7795 9.759 13.836 9.65149C14.7077 7.9905 15.1948 6.15981 15.2655 4.29529C15.2769 3.99573 15.0387 3.75003 14.7438 3.75Z" fill="var(--fill-0, white)"/>
<path d="M5.9999 9.25C6.22739 9.25 6.44264 9.35332 6.58499 9.53076C6.72731 9.70822 6.78143 9.94066 6.73208 10.1627C6.09716 13.0193 6.09716 15.9807 6.73208 18.8373C6.78143 19.0593 6.72731 19.2918 6.58499 19.4692C6.44264 19.6467 6.22739 19.75 5.9999 19.75H3.9999C3.64843 19.75 3.34411 19.5058 3.26785 19.1627C2.58528 16.0918 2.58528 12.9082 3.26785 9.83728C3.34411 9.49417 3.64843 9.25005 3.9999 9.25H5.9999ZM4.75247 17.25C4.33827 17.25 4.00247 17.5858 4.00247 18C4.00247 18.4142 4.33827 18.75 4.75247 18.75C5.16668 18.75 5.50247 18.4142 5.50247 18C5.50247 17.5858 5.16668 17.25 4.75247 17.25Z" fill="var(--fill-0, white)"/>
</g>
</g>
<defs>
<filter id="filter0_d_0_90" x="-3.24408" y="-2.25" width="30.9941" height="29.9963" filterUnits="userSpaceOnUse" color-interpolation-filters="sRGB">
<feFlood flood-opacity="0" result="BackgroundImageFix"/>
<feColorMatrix in="SourceAlpha" type="matrix" values="0 0 0 0 0 0 0 0 0 0 0 0 0 0 0 0 0 0 127 0" result="hardAlpha"/>
<feOffset dy="1.5"/>
<feGaussianBlur stdDeviation="3"/>
<feComposite in2="hardAlpha" operator="out"/>
<feColorMatrix type="matrix" values="0 0 0 0 0 0 0 0 0 0 0 0 0 0 0 0 0 0 0.24 0"/>
<feBlend mode="normal" in2="BackgroundImageFix" result="effect1_dropShadow_0_90"/>
<feBlend mode="normal" in="SourceGraphic" in2="effect1_dropShadow_0_90" result="shape"/>
</filter>
<clipPath id="clip0_0_90">
<rect width="24" height="24" fill="white"/>
</clipPath>
</defs>
</svg>
