<svg width="28" height="28" viewBox="0 0 28 28" fill="none" xmlns="http://www.w3.org/2000/svg">
<g clip-path="url(#clip0_1393_16928)">
<g filter="url(#filter0_d_1393_16928)">
<path d="M17.2012 2.625C18.5429 2.62503 19.6095 3.74139 19.5586 5.07768C19.484 7.04317 19.0551 8.97925 18.2944 10.7931H22.1668C23.9392 10.7931 25.3751 12.229 25.3751 14.0014C25.3751 14.0432 25.3721 14.0851 25.3661 14.1265C24.9993 16.6681 24.0991 19.0909 22.6249 21.3763L22.6251 21.3764C21.9606 22.4071 20.8907 23.0818 19.7104 23.2903L19.5959 23.309C16.7358 23.7385 13.8294 23.7113 10.8915 23.3061C9.46416 23.11 8.36759 21.9799 8.1628 20.5782C7.71399 17.5042 7.79067 14.4626 8.48081 11.47C8.52685 11.2704 8.64147 11.0933 8.80466 10.9695C11.3759 9.01929 13.5345 6.58326 15.1594 3.80235L15.16 3.80135C15.5815 3.08206 16.3522 2.625 17.2012 2.625ZM17.2012 4.375C16.9885 4.375 16.785 4.48964 16.6698 4.68618C14.9833 7.57235 12.7602 10.1116 10.1186 12.1668C9.54451 14.8318 9.48947 17.5517 9.89443 20.3252L9.90454 20.386C10.0218 21.0109 10.5175 21.4884 11.1296 21.5725H11.13C13.9232 21.9577 16.6604 21.9802 19.336 21.5785C20.091 21.4651 20.7552 21.0471 21.1542 20.4282L21.1544 20.4279C22.4812 18.371 23.2871 16.2088 23.6236 13.9457C23.5943 13.1657 22.954 12.5431 22.1668 12.5431H16.9168C16.4335 12.5431 16.0418 12.1513 16.0418 11.6681V11.6667C16.0418 11.525 16.0762 11.3855 16.142 11.2601C17.1591 9.32224 17.7273 7.18644 17.8099 5.01117C17.8231 4.66169 17.5452 4.37503 17.2012 4.375Z" fill="white"/>
<path d="M6.99998 10.7917C7.26538 10.7917 7.5165 10.9122 7.68257 11.1192C7.84862 11.3263 7.91177 11.5974 7.85419 11.8565C7.11344 15.1892 7.11344 18.6442 7.85419 21.9768C7.91177 22.2359 7.84863 22.5071 7.68257 22.7141C7.5165 22.9211 7.26538 23.0417 6.99998 23.0417H4.66664C4.2566 23.0416 3.90155 22.7568 3.81258 22.3565C3.01625 18.7738 3.01625 15.0596 3.81258 11.4768C3.90155 11.0765 4.2566 10.7917 4.66664 10.7917H6.99998ZM5.54464 20.125C5.0614 20.125 4.66963 20.5168 4.66963 21C4.66963 21.4832 5.0614 21.875 5.54464 21.875C6.02788 21.875 6.41964 21.4833 6.41964 21C6.41964 20.5168 6.02788 20.125 5.54464 20.125Z" fill="white"/>
</g>
</g>
<defs>
<filter id="filter0_d_1393_16928" x="-3.78467" y="-2.625" width="36.1597" height="34.9956" filterUnits="userSpaceOnUse" color-interpolation-filters="sRGB">
<feFlood flood-opacity="0" result="BackgroundImageFix"/>
<feColorMatrix in="SourceAlpha" type="matrix" values="0 0 0 0 0 0 0 0 0 0 0 0 0 0 0 0 0 0 127 0" result="hardAlpha"/>
<feOffset dy="1.75"/>
<feGaussianBlur stdDeviation="3.5"/>
<feComposite in2="hardAlpha" operator="out"/>
<feColorMatrix type="matrix" values="0 0 0 0 0 0 0 0 0 0 0 0 0 0 0 0 0 0 0.24 0"/>
<feBlend mode="normal" in2="BackgroundImageFix" result="effect1_dropShadow_1393_16928"/>
<feBlend mode="normal" in="SourceGraphic" in2="effect1_dropShadow_1393_16928" result="shape"/>
</filter>
<clipPath id="clip0_1393_16928">
<rect width="28" height="28" fill="white"/>
</clipPath>
</defs>
</svg>
