<svg preserveAspectRatio="none" width="100%" height="100%" overflow="visible" style="display: block;" viewBox="0 0 13.4165 13.4165" fill="none" xmlns="http://www.w3.org/2000/svg">
<path id="vector" d="M11.9229 0.256276C12.2646 -0.0854288 12.8185 -0.0854218 13.1602 0.256276C13.502 0.597985 13.502 1.15187 13.1602 1.49358L7.94557 6.70826L13.1602 11.9229C13.502 12.2647 13.502 12.8185 13.1602 13.1602C12.8185 13.502 12.2647 13.502 11.9229 13.1602L6.70826 7.94557L1.49358 13.1602C1.15187 13.502 0.597985 13.502 0.256276 13.1602C-0.0854218 12.8185 -0.0854288 12.2646 0.256276 11.9229L5.47096 6.70826L0.256276 1.49358C-0.0854221 1.15187 -0.0854289 0.597982 0.256276 0.256276C0.597982 -0.0854289 1.15187 -0.0854221 1.49358 0.256276L6.70826 5.47096L11.9229 0.256276Z" fill="white"/>
</svg>
