<svg preserveAspectRatio="none" width="100%" height="100%" overflow="visible" style="display: block;" viewBox="0 0 13.6659 13.5008" fill="none" xmlns="http://www.w3.org/2000/svg">
<g id="vector">
<path d="M4.5 11.1675C5.14433 11.1675 5.66667 11.6898 5.66667 12.3341C5.66667 12.9785 5.14433 13.5008 4.5 13.5008C3.85567 13.5008 3.33333 12.9785 3.33333 12.3341C3.33333 11.6898 3.85567 11.1675 4.5 11.1675Z" fill="white"/>
<path d="M10.5 11.1675C11.1443 11.1675 11.6667 11.6898 11.6667 12.3341C11.6667 12.9785 11.1443 13.5008 10.5 13.5008C9.85567 13.5008 9.33333 12.9785 9.33333 12.3341C9.33333 11.6898 9.85567 11.1675 10.5 11.1675Z" fill="white"/>
<path d="M1.33252 0C2.25162 9.65298e-06 3.02838 0.680687 3.14982 1.59139L3.26172 2.43156C3.26186 2.4326 3.26215 2.43361 3.26229 2.43465L3.74227 6.03223L3.74731 6.06698C3.86154 6.79454 4.48914 7.33414 5.22917 7.33415H10.7034C11.4553 7.33413 12.0909 6.7779 12.1903 6.03223L12.6702 2.43465C12.7068 2.16096 12.9583 1.96869 13.232 2.00521C13.5057 2.04175 13.698 2.29328 13.6615 2.56698L13.1815 6.16447C13.0158 7.40705 11.9564 8.33413 10.7034 8.33415H5.22917C4.78718 8.33414 4.36939 8.21857 4.00635 8.01465L4.1748 9.27726L4.18083 9.31575C4.25215 9.71054 4.59632 10.0008 5.00081 10.0008H11.8333C12.1095 10.0008 12.3333 10.2247 12.3333 10.5008C12.3333 10.777 12.1095 11.0008 11.8333 11.0008H5.00081C4.0817 11.0008 3.30494 10.3201 3.18351 9.40942L2.15853 1.72363C2.10328 1.30938 1.75005 1.00001 1.33252 1H0.5C0.223858 1 0 0.776142 0 0.5C0 0.223858 0.223858 0 0.5 0H1.33252Z" fill="white"/>
<path d="M7.96582 0.66748C8.24196 0.66748 8.46582 0.891338 8.46582 1.16748V2.66748H9.96582C10.242 2.66748 10.4658 2.89134 10.4658 3.16748C10.4658 3.44362 10.242 3.66748 9.96582 3.66748H8.46582V5.16748C8.46582 5.44362 8.24196 5.66748 7.96582 5.66748C7.68968 5.66747 7.46582 5.44362 7.46582 5.16748V3.66748H5.96582C5.68968 3.66747 5.46582 3.44362 5.46582 3.16748C5.46582 2.89134 5.68968 2.66749 5.96582 2.66748H7.46582V1.16748C7.46582 0.891341 7.68968 0.667486 7.96582 0.66748Z" fill="white"/>
</g>
</svg>
