<svg preserveAspectRatio="none" width="100%" height="100%" overflow="visible" style="display: block;" viewBox="0 0 48.8293 66" fill="none" xmlns="http://www.w3.org/2000/svg">
<g id="Group 1">
<path id="Vector" d="M10.3659 30.6585C10.3659 28.072 8.26946 25.9756 5.68293 25.9756C3.09639 25.9756 1 28.072 1 30.6585V41.5854C1 54.5165 11.4835 65 24.4146 65C37.3458 65 47.8293 54.5165 47.8293 41.5854V30.6585C47.8293 28.072 45.7329 25.9756 43.1463 25.9756C40.5598 25.9756 38.4634 28.072 38.4634 30.6585V27.5366C38.4634 24.95 36.367 22.8537 33.7805 22.8537C31.194 22.8537 29.0976 24.95 29.0976 27.5366V24.4146C29.0976 21.8281 27.0012 19.7317 24.4146 19.7317C21.8281 19.7317 19.7317 21.8281 19.7317 24.4146V5.68293C19.7317 3.09639 17.6353 1 15.0488 1C12.4622 1 10.3659 3.09639 10.3659 5.68293V40.0244V30.6585Z" stroke="var(--stroke-0, white)" stroke-width="2" stroke-miterlimit="10" stroke-linecap="round" stroke-linejoin="round"/>
</g>
</svg>
