<svg width="28" height="28" viewBox="0 0 28 28" fill="none" xmlns="http://www.w3.org/2000/svg">
<g clip-path="url(#clip0_1393_16930)">
<g filter="url(#filter0_d_1393_16930)">
<path d="M22.9337 13.1251C23.4169 13.1251 23.8087 13.5168 23.8087 14.0001C23.8087 15.7832 23.6907 17.5665 23.4536 19.3378L23.4046 19.6918C23.1294 21.6164 21.6167 23.1299 19.6924 23.4035L19.6923 23.4033C16.0345 23.926 12.3235 23.9424 8.66366 23.4523L8.30961 23.4033C6.38506 23.1281 4.8716 21.6154 4.59798 19.6911L4.59812 19.691C4.32834 17.8037 4.19409 15.9018 4.19409 14.0001C4.19409 13.5168 4.58584 13.1251 5.06909 13.1251C5.55234 13.1251 5.94409 13.5168 5.94409 14.0001C5.94409 15.706 6.05689 17.4118 6.28361 19.1055L6.33046 19.4442L6.33061 19.4448C6.49452 20.5975 7.40188 21.5058 8.55727 21.671C12.1676 22.1872 15.8336 22.1872 19.4455 21.671L19.4461 21.6708C20.5988 21.507 21.507 20.5996 21.6723 19.4442C21.9304 17.6393 22.0587 15.8198 22.0587 14.0001C22.0587 13.5168 22.4504 13.1251 22.9337 13.1251Z" fill="white"/>
<path d="M12.5559 4.87338C13.3526 4.07672 14.6459 4.0767 15.4426 4.87338L19.2839 8.71461C19.6255 9.0563 19.6255 9.61034 19.2839 9.95206C18.9421 10.2937 18.3881 10.2938 18.0464 9.95206L14.875 6.78061V16.3334C14.8749 16.8166 14.4832 17.2084 14 17.2084C13.5167 17.2084 13.125 16.8166 13.125 16.3334V6.77904L9.95195 9.95206C9.61025 10.2937 9.05634 10.2937 8.71464 9.95206C8.37294 9.61035 8.37294 9.05632 8.71464 8.71461L12.5559 4.87338Z" fill="white"/>
</g>
</g>
<defs>
<filter id="filter0_d_1393_16930" x="-2.80591" y="-0.974121" width="33.6145" height="33.5322" filterUnits="userSpaceOnUse" color-interpolation-filters="sRGB">
<feFlood flood-opacity="0" result="BackgroundImageFix"/>
<feColorMatrix in="SourceAlpha" type="matrix" values="0 0 0 0 0 0 0 0 0 0 0 0 0 0 0 0 0 0 127 0" result="hardAlpha"/>
<feOffset dy="1.75"/>
<feGaussianBlur stdDeviation="3.5"/>
<feComposite in2="hardAlpha" operator="out"/>
<feColorMatrix type="matrix" values="0 0 0 0 0 0 0 0 0 0 0 0 0 0 0 0 0 0 0.24 0"/>
<feBlend mode="normal" in2="BackgroundImageFix" result="effect1_dropShadow_1393_16930"/>
<feBlend mode="normal" in="SourceGraphic" in2="effect1_dropShadow_1393_16930" result="shape"/>
</filter>
<clipPath id="clip0_1393_16930">
<rect width="28" height="28" fill="white"/>
</clipPath>
</defs>
</svg>
