<svg preserveAspectRatio="none" overflow="visible" style="display: block;" width="8.74558" height="8.74186" viewBox="0 0 8.74558 8.74186" fill="none" xmlns="http://www.w3.org/2000/svg">
<path id="vector" d="M3.62822 0.414177C3.97428 -0.146973 4.80171 -0.137911 5.13225 0.441338L6.13664 2.20171L8.06804 2.67278C8.07117 2.67346 8.07432 2.67404 8.07744 2.6748C8.70377 2.82783 8.95567 3.58317 8.54533 4.08117L7.21715 5.69366L7.3903 7.79382L7.39232 7.82482C7.42386 8.47193 6.75856 8.93145 6.16118 8.6646L4.37279 7.86596L2.58446 8.6646C1.97702 8.93555 1.3006 8.45711 1.35533 7.79382L1.52842 5.69366L0.200239 4.08123C-0.210103 3.58323 0.0418594 2.82783 0.668196 2.6748L2.60765 2.20171L3.6121 0.441338L3.62822 0.414177Z" fill="white"/>
</svg>
