<svg preserveAspectRatio="none" width="100%" height="100%" overflow="visible" style="display: block;" viewBox="0 0 16 16" fill="none" xmlns="http://www.w3.org/2000/svg">
<g id="High rated">
<path id="Union" d="M7.99836 2.16748C8.41669 2.16748 8.79257 2.39998 8.97924 2.77498L10.2317 5.295L12.9333 5.79167C13.325 5.86333 13.6467 6.14252 13.7733 6.52002C13.9 6.89751 13.8117 7.31416 13.5434 7.60832L11.5976 9.73494L12.02 12.5841C12.0758 12.9975 11.9017 13.3975 11.565 13.6333C11.2283 13.8691 10.7933 13.8983 10.4292 13.7083L8.03254 12.4575L5.63589 13.7083C5.4759 13.7917 5.30173 13.8333 5.1284 13.8333L5.12922 13.8325C4.90839 13.8325 4.68923 13.765 4.50007 13.6333C4.16341 13.3975 3.98919 12.9975 4.04418 12.59L4.40502 9.73918L2.45417 7.60832C2.18502 7.31499 2.09673 6.89751 2.22338 6.52002C2.35004 6.14252 2.67172 5.86333 3.06338 5.79167L5.76504 5.295L7.01756 2.77498C7.20423 2.39999 7.58003 2.16748 7.99836 2.16748Z" fill="var(--fill-0, #13645F)"/>
</g>
</svg>
