<svg preserveAspectRatio="none" width="100%" height="100%" overflow="visible" style="display: block;" viewBox="0 0 12 12" fill="none" xmlns="http://www.w3.org/2000/svg">
<g id="thumbs up icon" clip-path="url(#clip0_0_228)">
<path id="Union" d="M4.73413 1.79761C4.89309 1.00187 5.73203 0.5545 6.47827 0.833738C7.30535 1.14405 7.84681 1.95224 7.81421 2.82983L7.79956 3.00659L7.68726 3.90014H8.74878C10.3843 3.90028 11.5437 5.49472 11.0408 7.05054L10.2683 9.43823C9.94668 10.4321 9.02116 11.106 7.97632 11.1062H3.00854V11.1082H2.00854C1.44825 11.108 0.994025 10.6528 0.993896 10.0925V6.14136C0.993916 5.58096 1.44818 5.12686 2.00854 5.12671H3.03491L3.05542 5.09936L3.5564 4.43335C4.14076 3.65387 4.54335 2.75325 4.73413 1.79761ZM2.09351 6.22632V10.0076H2.94507V6.22632H2.09351ZM6.09155 1.86304C5.9668 1.81691 5.83572 1.89616 5.81226 2.01245C5.58931 3.1294 5.11981 4.18303 4.43628 5.09448L4.4353 5.09546L4.04468 5.61401V10.0066H7.97632L8.08179 10.0017C8.60524 9.95943 9.05739 9.60669 9.22144 9.10034L9.9939 6.71264C10.2503 5.91957 9.71251 5.10766 8.91187 5.00952L8.74878 4.99975H6.44116L6.51831 4.38159L6.70776 2.86987L6.71362 2.70971C6.69499 2.33889 6.45408 1.99898 6.09155 1.86304Z" fill="var(--fill-0, #101628)"/>
</g>
<defs>
<clipPath id="clip0_0_228">
<rect width="12" height="12" fill="white"/>
</clipPath>
</defs>
</svg>
