<svg preserveAspectRatio="none" width="100%" height="100%" overflow="visible" style="display: block;" viewBox="0 0 16 16" fill="none" xmlns="http://www.w3.org/2000/svg">
<g id="Rating Stars">
<path id="Star" d="M12.4316 9.68179C12.2438 9.86379 12.1575 10.127 12.2003 10.3851L12.8449 13.9526C12.8993 14.255 12.7717 14.561 12.5186 14.7357C12.2707 14.917 11.9407 14.9387 11.6703 14.7937L8.45882 13.1188C8.34716 13.0593 8.22317 13.0274 8.09627 13.0238H7.9368C7.91215 13.0238 7.88745 13.0252 7.86333 13.0303C7.80792 13.0421 7.754 13.0616 7.704 13.089L4.49181 14.772C4.33302 14.8517 4.15319 14.88 3.97699 14.8517C3.54774 14.7705 3.26132 14.3616 3.33166 13.9301L3.97699 10.3627C4.01977 10.1023 3.93349 9.83768 3.74569 9.65278L1.12736 7.11494C0.908379 6.90249 0.832244 6.58345 0.932307 6.29558C1.02947 6.00844 1.27745 5.79889 1.57692 5.75176L5.18066 5.22896C5.45474 5.20068 5.69547 5.03391 5.81874 4.78738L7.40671 1.53169C7.44441 1.45918 7.49299 1.39247 7.55173 1.33591L7.5824 1.31206C7.60541 1.29416 7.62636 1.27379 7.64782 1.25405C7.66323 1.23988 7.67949 1.2268 7.69654 1.21477C7.72057 1.19782 7.74761 1.1858 7.77522 1.17566L7.81276 1.16189L7.84456 1.14879C7.90495 1.12393 7.96963 1.11113 8.03494 1.11113H8.24129C8.51393 1.13941 8.75394 1.30256 8.87938 1.54619L10.4884 4.78738C10.6044 5.02449 10.8299 5.18908 11.0902 5.22896L14.6939 5.75176C14.9985 5.79526 15.253 6.00554 15.3538 6.29558C15.4488 6.58635 15.3668 6.90539 15.1435 7.11494L12.4316 9.68179Z" fill="var(--fill-0, #13645F)"/>
</g>
</svg>
