<svg preserveAspectRatio="none" width="100%" height="100%" overflow="visible" style="display: block;" viewBox="0 0 24 24" fill="none" xmlns="http://www.w3.org/2000/svg">
<g id="Rating Stars">
<path id="Star" d="M18.6474 14.5226C18.3657 14.7956 18.2363 15.1904 18.3005 15.5776L19.2674 20.9288C19.349 21.3824 19.1576 21.8414 18.778 22.1035C18.406 22.3754 17.9111 22.408 17.5054 22.1905L12.6882 19.6781C12.5207 19.5889 12.3347 19.541 12.1444 19.5356H11.9052C11.8682 19.5356 11.8312 19.5378 11.795 19.5454C11.7119 19.563 11.631 19.5924 11.556 19.6335L6.73772 22.1579C6.49952 22.2775 6.22978 22.3199 5.96549 22.2775C5.3216 22.1557 4.89198 21.5423 4.99748 20.8951L5.96549 15.5439C6.02966 15.1534 5.90023 14.7565 5.61853 14.4791L1.69103 10.6723C1.36257 10.3537 1.24836 9.8751 1.39846 9.4433C1.5442 9.01259 1.91618 8.69826 2.36538 8.62756L7.77098 7.84337C8.18211 7.80095 8.54321 7.55079 8.72811 7.18099L11.1101 2.29746C11.1666 2.1887 11.2395 2.08863 11.3276 2.0038L11.3736 1.96801C11.4081 1.94116 11.4395 1.91061 11.4717 1.881C11.4948 1.85974 11.5192 1.84013 11.5448 1.82208C11.5809 1.79665 11.6214 1.77862 11.6628 1.76342L11.7191 1.74276L11.7668 1.72312C11.8574 1.68582 11.9544 1.66663 12.0524 1.66663H12.3619C12.7709 1.70904 13.1309 1.95376 13.3191 2.31921L15.7326 7.18099C15.9066 7.53665 16.2448 7.78355 16.6353 7.84337L22.0409 8.62756C22.4977 8.69282 22.8795 9.00824 23.0307 9.4433C23.1731 9.87945 23.0502 10.358 22.7152 10.6723L18.6474 14.5226Z" fill="var(--fill-0, #006300)"/>
</g>
</svg>
