<svg preserveAspectRatio="none" width="100%" height="100%" overflow="visible" style="display: block;" viewBox="0 0 12 12" fill="none" xmlns="http://www.w3.org/2000/svg">
<g id="thumbs up icon">
<path id="Union" d="M5.18773 1.47181C5.28886 0.966883 5.82557 0.675052 6.30785 0.855596C7.0257 1.12487 7.47414 1.85556 7.37914 2.61634L7.17016 4.29017H9.03441C10.4321 4.29017 11.4236 5.65281 10.9934 6.98255L10.1379 9.6261C9.86303 10.4756 9.07178 11.0509 8.17894 11.0509H4.32543C3.71427 11.0507 3.21822 10.5556 3.21801 9.94446V5.74231C3.21812 5.50503 3.29446 5.27374 3.43578 5.08314L3.83519 4.54603L3.83715 4.54505C4.50304 3.62991 4.96605 2.58256 5.18773 1.47181ZM2.05101 5.42689C2.38133 5.42674 2.54653 5.42714 2.65746 5.51868C2.67702 5.53483 2.69502 5.55284 2.71117 5.57239C2.80269 5.68329 2.80297 5.84861 2.80297 6.17884V10.2159C2.80297 10.546 2.80266 10.7115 2.71117 10.8224C2.69507 10.8419 2.67693 10.86 2.65746 10.8761C2.54666 10.9674 2.38164 10.9678 2.05199 10.9679C1.7217 10.968 1.55648 10.9676 1.44555 10.8761C1.42597 10.8599 1.40801 10.842 1.39184 10.8224C1.30025 10.7115 1.30004 10.5463 1.30004 10.2159V6.17884C1.30004 5.84879 1.30034 5.68326 1.39184 5.57239C1.40796 5.55289 1.42604 5.5348 1.44555 5.51868C1.55635 5.42732 1.72125 5.42703 2.05101 5.42689Z" fill="var(--fill-0, #101628)"/>
</g>
</svg>
