<svg preserveAspectRatio="none" width="100%" height="100%" overflow="visible" style="display: block;" viewBox="0 0 12 12" fill="none" xmlns="http://www.w3.org/2000/svg">
<g id="Icon">
<path id="Vector" fill-rule="evenodd" clip-rule="evenodd" d="M4.3015 1.8995C4.51248 1.65611 4.77336 1.46098 5.06643 1.32734C5.3595 1.1937 5.6779 1.12469 6 1.125C6.6785 1.125 7.2865 1.425 7.6985 1.8995C8.01985 1.87656 8.34237 1.92304 8.64416 2.0358C8.94595 2.14856 9.21993 2.32496 9.4475 2.553C9.67545 2.78053 9.85179 3.05444 9.96455 3.35613C10.0773 3.65782 10.1238 3.98024 10.101 4.3015C10.3443 4.51253 10.5393 4.77343 10.6729 5.0665C10.8064 5.35957 10.8754 5.67794 10.875 6C10.8753 6.3221 10.8063 6.6405 10.6727 6.93357C10.539 7.22664 10.3439 7.48752 10.1005 7.6985C10.1233 8.01976 10.0768 8.34218 9.96404 8.64387C9.85129 8.94556 9.67495 9.21947 9.447 9.447C9.21947 9.67495 8.94556 9.85129 8.64387 9.96404C8.34218 10.0768 8.01976 10.1233 7.6985 10.1005C7.48752 10.3439 7.22664 10.539 6.93357 10.6727C6.6405 10.8063 6.3221 10.8753 6 10.875C5.6779 10.8753 5.3595 10.8063 5.06643 10.6727C4.77336 10.539 4.51248 10.3439 4.3015 10.1005C3.98019 10.1235 3.65769 10.0771 3.3559 9.96443C3.05412 9.85176 2.78011 9.67545 2.5525 9.4475C2.32448 9.21991 2.14811 8.94593 2.03535 8.64414C1.92259 8.34236 1.87609 8.01985 1.899 7.6985C1.65571 7.48747 1.46066 7.22657 1.32711 6.9335C1.19356 6.64044 1.12463 6.32206 1.125 6C1.125 5.3215 1.425 4.7135 1.8995 4.3015C1.87663 3.98023 1.92315 3.65781 2.03591 3.35611C2.14867 3.05442 2.32502 2.78051 2.553 2.553C2.78051 2.32502 3.05442 2.14867 3.35611 2.03591C3.65781 1.92315 3.98023 1.87663 4.3015 1.8995ZM7.805 5.093C7.835 5.05303 7.85671 5.00746 7.86884 4.95898C7.88098 4.91049 7.8833 4.86007 7.87568 4.81068C7.86805 4.76128 7.85062 4.71391 7.82443 4.67135C7.79823 4.62879 7.76379 4.59189 7.72313 4.56283C7.68247 4.53376 7.63641 4.51312 7.58766 4.50212C7.5389 4.49111 7.48844 4.48996 7.43924 4.49873C7.39004 4.50751 7.34308 4.52603 7.30114 4.55321C7.2592 4.58039 7.22311 4.61568 7.195 4.657L5.577 6.922L4.765 6.11C4.69391 6.04376 4.59989 6.0077 4.50274 6.00941C4.40559 6.01113 4.3129 6.05048 4.24419 6.11919C4.17548 6.1879 4.13613 6.28059 4.13441 6.37774C4.1327 6.47489 4.16876 6.56891 4.235 6.64L5.36 7.765C5.3985 7.80347 5.4449 7.83309 5.496 7.85182C5.54709 7.87055 5.60165 7.87794 5.65588 7.87347C5.71012 7.869 5.76273 7.85277 5.81007 7.82593C5.8574 7.79908 5.89833 7.76225 5.93 7.718L7.805 5.093Z" fill="var(--fill-0, #13645F)"/>
</g>
</svg>
